<svg height="512" viewBox="0 0 512 512" width="512" xmlns="http://www.w3.org/2000/svg"><g id="Flat"><path d="m376 264.733a55.267 55.267 0 0 0 -9.282-30.656 40 40 0 0 1 -6.718-22.188v-83.889a104 104 0 0 0 -104-104 104 104 0 0 0 -104 104v83.889a40 40 0 0 1 -6.718 22.188 55.267 55.267 0 0 0 -9.282 30.656 55.267 55.267 0 0 0 55.267 55.267h129.466a55.267 55.267 0 0 0 55.267-55.267z" fill="#7a432a"/><path d="m336 320h-36a12 12 0 0 1 -12-12v-68h-64v68a12 12 0 0 1 -12 12h-36a48 48 0 0 0 -48 48v128h256v-128a48 48 0 0 0 -48-48z" fill="#fdc8a2"/><path d="m288 240v49.33a80.1 80.1 0 0 1 -64 0v-49.33z" fill="#fdbf92"/><path d="m336 496v-16a54.626 54.626 0 0 0 16-38.627v-.833a54.625 54.625 0 0 0 -9.174-30.3l-6.826-10.24h48v-32a48 48 0 0 0 -48-48h-32l-4.12 10.29a47.26 47.26 0 0 1 -87.76 0l-4.12-10.29h-32a48 48 0 0 0 -48 48v32h48l-6.826 10.239a54.625 54.625 0 0 0 -9.174 30.301v.833a54.626 54.626 0 0 0 16 38.627v16" fill="#f6aeae"/><g fill="#f19f9f"><path d="m168 384h16v16h-16z"/><path d="m328 384h16v16h-16z"/><path d="m256 400c-16.331 0-43.326-8.013-53.657-18.343l11.314-11.314c5.963 5.964 27.568 13.657 42.343 13.657s36.38-7.693 42.343-13.657l11.314 11.314c-10.331 10.33-37.326 18.343-53.657 18.343z"/></g><path d="m256 272a80 80 0 0 1 -80-80v-24l11.842-6.579a305.266 305.266 0 0 0 100.158-89.421 111.987 111.987 0 0 0 39.853 65.483l8.147 6.517v48a80 80 0 0 1 -80 80z" fill="#fdc8a2"/><path d="m214 180a14 14 0 1 1 14-14 14.015 14.015 0 0 1 -14 14z" fill="#91563a"/><path d="m298 180a14 14 0 1 1 14-14 14.015 14.015 0 0 1 -14 14z" fill="#91563a"/><path d="m256 232a24.027 24.027 0 0 1 -24-24h16a8 8 0 0 0 16 0h16a24.027 24.027 0 0 1 -24 24z" fill="#fcb079"/><path d="m360 144h8a0 0 0 0 1 0 0v48a0 0 0 0 1 0 0h-8a24 24 0 0 1 -24-24 24 24 0 0 1 24-24z" fill="#fcb079" transform="matrix(-1 0 0 -1 704 336)"/></g></svg>